<?xml version="1.0" standalone="no"?>
<!DOCTYPE svg PUBLIC "-//W3C//DTD SVG 20010904//EN"
 "http://www.w3.org/TR/2001/REC-SVG-20010904/DTD/svg10.dtd">
<svg version="1.0" xmlns="http://www.w3.org/2000/svg"
 width="980.000000pt" height="980.000000pt" viewBox="0 0 980.000000 980.000000"
 preserveAspectRatio="xMidYMid meet">
<metadata>
Created by potrace 1.11, written by Peter Selinger 2001-2013
</metadata>
<g transform="translate(0.000000,980.000000) scale(0.100000,-0.100000)"
fill="#000000" stroke="none">
<path d="M4740 8874 c-511 -65 -946 -380 -1154 -836 -87 -191 -126 -376 -126
-597 0 -240 39 -419 136 -620 29 -62 54 -115 54 -117 0 -2 -370 -4 -822 -4
-913 0 -902 0 -1027 -65 -84 -45 -167 -128 -208 -211 -17 -32 -380 -1141 -809
-2464 l-778 -2405 -4 -103 c-3 -82 0 -116 17 -170 53 -174 204 -315 379 -351
38 -8 1293 -11 4505 -11 4869 0 4500 -4 4624 56 112 54 216 178 254 306 17 54
20 88 17 170 l-4 103 -778 2405 c-428 1323 -792 2432 -809 2465 -39 78 -135
174 -216 215 -120 60 -115 60 -1018 60 -453 0 -823 2 -823 5 0 3 20 45 44 93
49 97 96 231 121 343 26 116 32 402 10 531 -98 590 -544 1053 -1135 1179 -93
20 -363 34 -450 23z m385 -718 c200 -68 350 -195 445 -378 57 -109 82 -210 82
-338 1 -131 -18 -214 -80 -340 -39 -82 -59 -108 -141 -190 -70 -70 -116 -106
-168 -133 -136 -71 -166 -77 -363 -77 -198 0 -237 8 -363 78 -182 100 -322
284 -372 487 -24 98 -23 257 3 356 73 277 295 490 577 555 99 23 282 13 380
-20z m1160 -3494 c119 -26 220 -62 319 -115 85 -45 186 -115 186 -129 0 -5
-52 -89 -116 -188 -74 -115 -120 -178 -127 -173 -7 4 -25 17 -42 29 -44 33
-161 89 -235 114 -82 28 -275 38 -376 21 -88 -16 -191 -59 -255 -108 -72 -53
-143 -159 -176 -257 -23 -70 -26 -98 -27 -211 0 -213 46 -337 174 -466 119
-120 246 -172 424 -172 136 0 268 41 388 121 l38 25 0 83 0 84 -145 0 -145 0
0 215 0 215 365 0 365 0 0 -585 0 -585 -205 0 -205 0 0 75 c0 41 -2 75 -4 75
-1 0 -34 -20 -71 -45 -128 -84 -311 -135 -485 -135 -409 0 -780 248 -929 622
-63 158 -76 233 -76 448 1 170 3 206 23 277 53 196 145 354 284 489 161 157
343 248 575 290 108 19 359 11 478 -14z m-2715 -407 l0 -406 112 3 112 3 215
402 216 403 267 0 267 0 -38 -67 c-309 -546 -521 -925 -521 -932 0 -8 490
-907 566 -1038 l25 -43 -279 0 -279 0 -220 423 -220 422 -111 3 -112 3 0 -426
0 -425 -250 0 -250 0 0 1040 0 1040 250 0 250 0 0 -405z"/>
</g>
</svg>
